<?xml version="1.0" encoding="UTF-8"?>
<svg id="Capa_1" data-name="Capa 1" xmlns="http://www.w3.org/2000/svg" viewBox="0 0 959.47 429.86">
  <defs>
    <style>
      .cls-1 {
        fill: #fff;
      }
    </style>
  </defs>
  <g>
    <path class="cls-1" d="M497.07,133.34c8.24-15.99,24.85-26.48,43.43-26.48,13.08,0,25.83,5.38,34.98,14.75l3.44,3.52,10.35-19.37-2.1-1.89c-12.84-11.55-29.42-17.92-46.67-17.92-13.25,0-26.16,3.75-37.32,10.84-6.61,4.21-12.44,9.47-17.27,15.54l11.15,20.99Z"/>
    <path class="cls-1" d="M540.5,225.49c-23.1,0-44.98-11.75-57.88-30.86,0,0-4.25-7.14-5.04-8.78l-31.76-59.81-52.85,99.46h-23.62l76.47-144.01,52.5,98.87c8.76,14.96,24.92,24.24,42.18,24.24,13.51,0,26.54-5.67,35.76-15.57l3.44-3.69,10.41,19.5-2.02,1.89c-12.97,12.1-29.87,18.76-47.59,18.76Z"/>
  </g>
  <g>
    <path class="cls-1" d="M638.06,325.57v29.88h-16.72v-88.74c.64-.21,1.31-.63,1.98-.63,12.44.02,24.92-.43,37.32.29,17.32,1.01,27.83,12.39,28.03,29.16.19,16.22-10.24,28.2-26.89,29.92-7.52.77-15.18.13-23.72.13ZM638.26,314.86c11.25.21,22.41,2.64,29.9-8.24,4.02-5.84,3.62-17.28-.81-22.67-7.93-9.66-18.66-6.47-29.09-6.85v37.76Z"/>
    <path class="cls-1" d="M888.32,355.87c-4.95,0-9.4-.17-13.82.06-3.09.16-4.73-.98-5.84-3.85-2.33-6.06-4.77-12.11-7.61-17.94-.75-1.54-3.09-3.19-4.75-3.24-9.84-.27-19.7-.22-29.54.08-1.52.05-3.68,1.57-4.35,2.98-2.56,5.34-4.96,10.82-6.8,16.45-1.38,4.22-3.48,6.15-8,5.48-2.33-.34-4.75-.06-7.97-.06,3.51-8.42,6.63-16.12,9.93-23.75,9.07-20.95,18.34-41.83,27.24-62.85,1.7-4.02,4.57-3.61,7.66-3.68,2.98-.06,5.58-.24,7.18,3.51,12,28.19,24.25,56.27,36.4,84.39.2.47.13,1.07.26,2.42ZM841.6,286.96c-4.79,11.24-9.23,21.67-13.87,32.56h27.49c-4.58-10.95-8.9-21.28-13.62-32.56Z"/>
    <path class="cls-1" d="M609.99,355.95c-5.76,0-10.75.27-15.68-.16-1.49-.13-3.42-1.92-4.11-3.43-2.63-5.73-4.93-11.61-7.17-17.51-1.05-2.77-2.5-4.1-5.69-4.03-9.85.21-19.71-.05-29.55.27-1.6.05-3.82,1.84-4.57,3.39-2.33,4.84-4.36,9.86-5.99,14.98-1.49,4.68-3.76,7.39-9.11,6.49-2.14-.36-4.4-.06-7.03-.06.33-1.51.38-2.6.79-3.53,11.9-27.42,23.99-54.76,35.64-82.28,2.4-5.68,6.78-4.38,10.61-4.24,1.76.06,4.19,2.48,5.03,4.4,11.51,26.18,22.79,52.47,34.11,78.73.86,2,1.59,4.06,2.72,6.98ZM576.78,319.58c-4.83-11.37-9.2-21.68-14.11-33.25-4.84,11.7-9.18,22.2-13.74,33.25h27.86Z"/>
    <path class="cls-1" d="M511.67,287.19c-4.3-2.38-7.79-4.46-11.42-6.28-8.03-4.04-16.59-5.63-25.46-4.17-15.9,2.6-25.43,13.06-27.25,29.41-2.46,22.17,10.48,38.89,32.17,39.46,7.98.21,16.13-3.39,24.07-5.68,3.11-.9,5.88-2.99,9.68-5.01,0,4.48.14,8.28-.09,12.05-.07,1.06-1.01,2.45-1.95,3.01-18.34,10.92-52.47,12.92-70.91-7.09-13.32-14.45-14.34-31.64-8.49-49.08,5.58-16.63,19.01-25.22,35.71-28.55,13.83-2.76,27.32-1.1,40.37,4.51,4.1,1.76,5.74,4.01,4.68,8.42-.64,2.68-.71,5.49-1.12,8.99Z"/>
    <path class="cls-1" d="M761.62,276.99h-28.76v-10.85h74.22c.26.8.62,1.47.67,2.16q.62,8.85-8.35,8.91c-6.65.03-13.31,0-20.58,0v78.15h-17.21v-78.37Z"/>
    <path class="cls-1" d="M901.46,266.07h16.39v78.24c4.73,0,8.92.02,13.12,0,7.62-.05,15.26.2,22.86-.29,5.25-.34,5.5,2.28,5.64,6.34.14,4.32-1.05,5.78-5.59,5.71-17.26-.26-34.53-.11-52.4-.11v-89.89Z"/>
    <path class="cls-1" d="M719.36,355.64h-16.39v-89.78c4.6,0,9.19-.27,13.7.2,1.07.11,2.64,2.73,2.67,4.22.2,10.03.04,20.07.02,30.11-.02,16.17,0,32.34,0,48.51,0,2.01,0,4.02,0,6.75Z"/>
    <path class="cls-1" d="M104.21,356.27v-90.78c19.53-.27,38.99-3.76,57.64,4.59,17.27,7.74,26.02,23.12,25.07,43.73-.87,19.01-11.85,34.25-28.97,40.23-11.1,3.88-39.83,5.13-53.74,2.23ZM121.07,311.28h.03c0,6.81-.01,13.62,0,20.43.03,15.3.04,15.47,15.49,14.6,13.8-.78,24.66-6.81,29.35-20.28,4.92-14.11,4.61-27.89-6.62-39.65-9.21-9.65-21.01-10-33.12-9.86-3.9.05-5.3,1.27-5.21,5.25.23,9.83.08,19.67.08,29.51Z"/>
    <path class="cls-1" d="M412.83,356.35c-6.62,1.98-11,.4-15.31-4.65-16.55-19.41-33.6-38.39-51.26-58.44v63.22h-12.65v-90.57c5.98-1.82,10.83-1.1,15.36,4.21,15.34,17.98,31.09,35.61,46.69,53.36,1.2,1.36,2.45,2.67,4.58,4.99v-62.73h12.58v90.61Z"/>
    <path class="cls-1" d="M91.24,357.09c-5.13,0-10.06.34-14.9-.17-1.9-.2-4.42-1.92-5.22-3.63-2.82-5.96-4.81-12.32-7.58-18.31-.71-1.54-3.11-3.19-4.78-3.24-10.2-.31-20.42-.32-30.62-.02-1.62.05-3.87,1.79-4.64,3.34-2.6,5.23-5.07,10.61-6.81,16.17-1.46,4.66-3.97,6.36-8.63,5.8-2.36-.28-4.78-.05-8.06-.05,4.49-10.27,8.61-19.75,12.77-29.2,8.66-19.71,17.49-39.34,25.87-59.17,1.78-4.2,4.67-3.66,7.76-3.73,2.9-.06,5.81-.77,7.48,3.16,12.34,29.02,24.88,57.95,37.35,86.91.13.31.02.73.02,2.14ZM29.39,320.17h28.29c-4.73-11.17-9.22-21.79-14.26-33.71-5,12.02-9.39,22.56-14.03,33.71Z"/>
    <path class="cls-1" d="M236.73,334.94c7.99-19.85,15.46-38.38,22.93-56.92.42-1.05.8-2.13,1.23-3.17,4.29-10.39,4.89-10.72,17.73-9.08-1.22,3.21-2.29,6.3-3.56,9.31-10.97,25.94-22.02,51.86-32.94,77.82-1.27,3.03-2.47,5.29-6.39,4.85-3.8-.42-7.35.63-9.51-4.63-11.92-29.02-24.35-57.84-36.98-87.6,6.32,0,12.26-.28,18.12.23,1.25.11,2.58,2.95,3.32,4.76,8.56,20.99,17.02,42.02,26.06,64.44Z"/>
    <path class="cls-1" d="M292.47,265.64h16.38v90.99h-16.38v-90.99Z"/>
  </g>
  <g>
    <path class="cls-1" d="M87.34,429.36v-30.88h1.67v30.88h-1.67Z"/>
    <path class="cls-1" d="M137.61,425.81v-27.33h1.67v30.88h-1l-20.47-27.04v27.04h-1.67v-30.88h.84l20.64,27.33Z"/>
    <path class="cls-1" d="M175.34,426.48l10.82-27.99h1.71l-12.12,30.88h-.83l-12.29-30.88h1.71l10.99,27.99Z"/>
    <path class="cls-1" d="M229.83,429.36h-18.51v-30.88h18.34v1.55h-16.67v12.95h15.63v1.55h-15.63v13.29h16.84v1.55Z"/>
    <path class="cls-1" d="M261.75,429.86c-2.23,0-4.23-.55-6-1.65s-3.11-2.69-4.03-4.78l1.42-.71c1.67,3.73,4.5,5.6,8.48,5.6,2.31,0,4.19-.63,5.64-1.88,1.51-1.28,2.26-2.9,2.26-4.85,0-1.31-.36-2.42-1.09-3.34-.73-.92-1.9-1.75-3.51-2.51-.89-.42-1.99-.89-3.3-1.42l-2.63-1.09c-3.79-1.67-5.68-4.15-5.68-7.44,0-2.29.79-4.17,2.38-5.64,1.62-1.48,3.7-2.21,6.27-2.21,3.65,0,6.5,1.53,8.57,4.6l-1.3.92c-1.81-2.64-4.22-3.97-7.23-3.97-2.06,0-3.75.59-5.06,1.76s-1.96,2.69-1.96,4.55c0,1.25.34,2.34,1.02,3.26.68.92,1.83,1.78,3.45,2.59.5.25,1.55.71,3.13,1.38,1.48.59,2.55,1.03,3.22,1.34,3.59,1.7,5.39,4.11,5.39,7.23,0,2.42-.91,4.42-2.72,5.98-1.78,1.53-4.03,2.3-6.73,2.3Z"/>
    <path class="cls-1" d="M301.28,429.36v-29.33h-9.49v-1.55h20.6v1.55h-9.44v29.33h-1.67Z"/>
    <path class="cls-1" d="M337.38,429.36h-1.63v-30.88h.75l13.62,20.06,13.5-20.06h.79v30.88h-1.63v-26.78l-12.45,18.51h-.42l-12.54-18.47v26.74Z"/>
    <path class="cls-1" d="M410.05,429.36h-18.51v-30.88h18.34v1.55h-16.67v12.95h15.63v1.55h-15.63v13.29h16.84v1.55Z"/>
    <path class="cls-1" d="M456.39,425.81v-27.33h1.67v30.88h-1l-20.47-27.04v27.04h-1.67v-30.88h.84l20.64,27.33Z"/>
    <path class="cls-1" d="M490.9,429.36v-29.33h-9.49v-1.55h20.6v1.55h-9.44v29.33h-1.67Z"/>
    <path class="cls-1" d="M573.01,429.36h-1.8l-3.89-10.11h-13.83l-3.93,10.11h-1.8l12.12-30.88h1.04l12.08,30.88ZM566.78,417.7l-6.39-16.42-6.39,16.42h12.79Z"/>
    <path class="cls-1" d="M606.31,429.36h-9.82v-30.88h10.07c4.43,0,7.91,1.39,10.44,4.18,2.56,2.81,3.85,6.59,3.85,11.32s-1.3,8.48-3.89,11.24c-2.59,2.76-6.14,4.14-10.66,4.14ZM598.16,400.03v27.78h8.06c4.07,0,7.25-1.22,9.53-3.68,2.29-2.45,3.43-5.84,3.43-10.15s-1.12-7.72-3.34-10.2c-2.23-2.51-5.29-3.76-9.19-3.76h-8.48Z"/>
    <path class="cls-1" d="M654.24,426.48l10.82-27.99h1.71l-12.12,30.88h-.84l-12.29-30.88h1.72l10.99,27.99Z"/>
    <path class="cls-1" d="M690.21,429.36v-30.88h1.67v30.88h-1.67Z"/>
    <path class="cls-1" d="M726.07,429.86c-2.23,0-4.23-.55-6-1.65s-3.11-2.69-4.03-4.78l1.42-.71c1.67,3.73,4.5,5.6,8.48,5.6,2.31,0,4.19-.63,5.64-1.88,1.51-1.28,2.26-2.9,2.26-4.85,0-1.31-.36-2.42-1.09-3.34-.73-.92-1.9-1.75-3.51-2.51-.89-.42-1.99-.89-3.3-1.42l-2.63-1.09c-3.79-1.67-5.68-4.15-5.68-7.44,0-2.29.79-4.17,2.38-5.64,1.62-1.48,3.71-2.21,6.27-2.21,3.65,0,6.5,1.53,8.56,4.6l-1.3.92c-1.81-2.64-4.22-3.97-7.23-3.97-2.06,0-3.75.59-5.06,1.76-1.31,1.17-1.96,2.69-1.96,4.55,0,1.25.34,2.34,1.02,3.26.68.92,1.83,1.78,3.45,2.59.5.25,1.54.71,3.13,1.38,1.48.59,2.55,1.03,3.22,1.34,3.59,1.7,5.39,4.11,5.39,7.23,0,2.42-.91,4.42-2.72,5.98-1.78,1.53-4.02,2.3-6.73,2.3Z"/>
    <path class="cls-1" d="M785.03,425.18c-3.04,3.12-6.77,4.68-11.2,4.68s-8.15-1.56-11.24-4.68c-3.06-3.15-4.6-6.91-4.6-11.28s1.53-8.14,4.6-11.28c3.09-3.12,6.84-4.68,11.24-4.68s8.16,1.56,11.2,4.68c3.09,3.12,4.64,6.88,4.64,11.28s-1.55,8.16-4.64,11.28ZM763.8,424.1c2.76,2.82,6.1,4.22,10.03,4.22s7.27-1.41,10.03-4.22c2.76-2.79,4.13-6.18,4.13-10.2s-1.38-7.41-4.13-10.2c-2.76-2.81-6.1-4.22-10.03-4.22s-7.27,1.41-10.03,4.22c-2.76,2.79-4.14,6.18-4.14,10.2s1.38,7.38,4.14,10.2Z"/>
    <path class="cls-1" d="M825.35,415.91l7.9,13.45h-1.92l-7.69-13.29c-.14.03-.45.04-.92.04h-6.48v13.24h-1.67v-30.88h8.69c3.21,0,5.64.86,7.31,2.59,1.7,1.7,2.55,3.78,2.55,6.22,0,2.06-.67,3.9-2.01,5.52-1.28,1.59-3.2,2.62-5.77,3.09ZM816.24,400.03v14.54h6.56c2.67,0,4.78-.67,6.33-2.01,1.54-1.34,2.32-3.11,2.32-5.31s-.75-3.95-2.24-5.26c-1.49-1.31-3.48-1.96-5.96-1.96h-7.02Z"/>
    <path class="cls-1" d="M875.03,398.48h1.84l-10.36,17.93v12.95h-1.67v-12.95l-10.32-17.93h1.84l9.32,16.46,9.36-16.46Z"/>
  </g>
</svg>