<?xml version="1.0" encoding="UTF-8"?>
<svg id="Capa_1" data-name="Capa 1" xmlns="http://www.w3.org/2000/svg" viewBox="800 390 800 200">
  <defs>
    <style>
      .cls-1 {
        fill: #fff;
      }
    </style>
  </defs>
  <path class="cls-1" d="M1343.97,468.51v23.78h-13.31v-70.64c.51-.17,1.04-.5,1.57-.5,9.9.02,19.83-.34,29.71.23,13.79.8,22.15,9.87,22.31,23.21.15,12.91-8.15,22.45-21.4,23.81-5.98.62-12.08.1-18.88.1ZM1344.13,459.98c8.96.17,17.84,2.1,23.8-6.56,3.2-4.65,2.88-13.75-.65-18.04-6.32-7.69-14.85-5.15-23.16-5.45v30.06Z"/>
  <path class="cls-1" d="M1543.18,492.63c-3.94,0-7.48-.14-11,.05-2.46.13-3.77-.78-4.65-3.07-1.86-4.83-3.8-9.64-6.05-14.28-.59-1.22-2.46-2.54-3.78-2.58-7.83-.22-15.68-.17-23.52.06-1.21.04-2.93,1.25-3.47,2.37-2.04,4.25-3.95,8.61-5.41,13.09-1.1,3.36-2.77,4.89-6.37,4.36-1.85-.27-3.78-.05-6.34-.05,2.8-6.7,5.28-12.83,7.91-18.91,7.22-16.68,14.6-33.29,21.69-50.03,1.36-3.2,3.63-2.88,6.1-2.93,2.38-.05,4.44-.19,5.71,2.79,9.55,22.44,19.3,44.79,28.97,67.17.16.38.1.85.21,1.93ZM1505.99,437.77c-3.81,8.95-7.35,17.25-11.04,25.92h21.88c-3.65-8.71-7.09-16.94-10.84-25.92Z"/>
  <path class="cls-1" d="M1321.63,492.69c-4.59,0-8.56.21-12.48-.13-1.19-.1-2.72-1.53-3.27-2.73-2.1-4.56-3.93-9.24-5.7-13.94-.83-2.2-1.99-3.26-4.53-3.21-7.84.17-15.69-.04-23.53.22-1.27.04-3.04,1.46-3.64,2.7-1.86,3.85-3.47,7.85-4.77,11.93-1.19,3.73-3,5.88-7.25,5.17-1.71-.29-3.5-.05-5.59-.05.26-1.21.31-2.07.63-2.81,9.47-21.82,19.1-43.59,28.37-65.49,1.91-4.52,5.4-3.48,8.45-3.38,1.4.05,3.34,1.98,4.01,3.5,9.16,20.84,18.14,41.76,27.15,62.67.69,1.59,1.26,3.24,2.16,5.56ZM1295.2,463.74c-3.84-9.05-7.32-17.26-11.23-26.47-3.85,9.31-7.3,17.67-10.94,26.47h22.17Z"/>
  <path class="cls-1" d="M1243.37,437.96c-3.42-1.89-6.2-3.55-9.09-5-6.39-3.22-13.2-4.48-20.27-3.32-12.65,2.07-20.24,10.4-21.69,23.41-1.96,17.64,8.34,30.95,25.61,31.41,6.35.17,12.84-2.7,19.16-4.52,2.48-.72,4.68-2.38,7.71-3.98,0,3.57.11,6.59-.07,9.59-.05.84-.8,1.95-1.55,2.4-14.6,8.69-41.76,10.28-56.44-5.65-10.6-11.5-11.42-25.18-6.76-39.07,4.44-13.24,15.13-20.08,28.42-22.72,11.01-2.19,21.75-.87,32.14,3.59,3.27,1.4,4.57,3.19,3.72,6.7-.51,2.13-.56,4.37-.89,7.16Z"/>
  <path class="cls-1" d="M1442.32,429.84h-22.89v-8.64h59.08c.21.64.5,1.17.53,1.72q.49,7.04-6.65,7.09c-5.3.03-10.59,0-16.38,0v62.21h-13.7v-62.38Z"/>
  <path class="cls-1" d="M1553.64,421.15h13.04v62.28c3.77,0,7.1.02,10.44,0,6.07-.04,12.15.16,18.19-.23,4.18-.27,4.38,1.82,4.49,5.04.11,3.44-.84,4.6-4.45,4.55-13.74-.21-27.49-.09-41.71-.09v-71.55Z"/>
  <path class="cls-1" d="M1408.68,492.45h-13.05v-71.47c3.66,0,7.31-.22,10.91.16.85.09,2.1,2.17,2.12,3.36.16,7.98.03,15.97.02,23.96-.01,12.87,0,25.74,0,38.61,0,1.6,0,3.2,0,5.37Z"/>
  <path class="cls-1" d="M919.04,492.94v-72.26c15.54-.22,31.04-3,45.88,3.65,13.75,6.16,20.71,18.41,19.95,34.81-.7,15.13-9.43,27.26-23.06,32.02-8.84,3.09-31.7,4.08-42.78,1.77ZM932.46,457.14h.03c0,5.42,0,10.84,0,16.26.02,12.18.03,12.31,12.33,11.62,10.98-.62,19.63-5.42,23.36-16.15,3.91-11.23,3.67-22.2-5.27-31.56-7.33-7.68-16.72-7.96-26.36-7.84-3.1.04-4.22,1.01-4.15,4.18.18,7.83.06,15.66.06,23.49Z"/>
  <path class="cls-1" d="M1164.7,493.01c-5.27,1.58-8.76.32-12.19-3.7-13.17-15.45-26.74-30.56-40.8-46.52v50.32h-10.07v-72.09c4.76-1.45,8.62-.87,12.23,3.35,12.21,14.31,24.75,28.34,37.17,42.48.95,1.08,1.95,2.13,3.64,3.97v-49.93h10.01v72.12Z"/>
  <path class="cls-1" d="M908.71,493.59c-4.08,0-8.01.27-11.86-.14-1.51-.16-3.52-1.53-4.16-2.89-2.24-4.75-3.83-9.8-6.03-14.57-.57-1.22-2.47-2.54-3.8-2.58-8.12-.24-16.25-.25-24.37-.02-1.29.04-3.08,1.43-3.7,2.66-2.07,4.17-4.03,8.44-5.42,12.87-1.16,3.71-3.16,5.06-6.87,4.61-1.88-.23-3.8-.04-6.41-.04,3.57-8.18,6.86-15.72,10.16-23.25,6.89-15.69,13.92-31.32,20.59-47.1,1.41-3.34,3.72-2.91,6.17-2.97,2.31-.05,4.62-.61,5.95,2.51,9.82,23.1,19.81,46.12,29.73,69.18.11.25.01.58.01,1.7ZM859.49,464.21h22.52c-3.76-8.89-7.34-17.35-11.35-26.83-3.98,9.56-7.47,17.96-11.17,26.83Z"/>
  <path class="cls-1" d="M1024.52,475.97c6.36-15.8,12.31-30.55,18.25-45.3.34-.84.64-1.69.98-2.53,3.42-8.27,3.9-8.53,14.11-7.23-.97,2.55-1.82,5.02-2.84,7.41-8.74,20.65-17.53,41.28-26.22,61.95-1.01,2.41-1.96,4.21-5.09,3.86-3.02-.34-5.85.51-7.57-3.69-9.49-23.1-19.38-46.04-29.43-69.73,5.03,0,9.76-.22,14.42.18,1,.09,2.05,2.35,2.64,3.79,6.81,16.71,13.54,33.45,20.74,51.29Z"/>
  <path class="cls-1" d="M1068.89,420.81h13.03v72.43h-13.03v-72.43Z"/>
</svg>